<svg width="48" height="49" viewBox="0 0 48 49" fill="none" xmlns="http://www.w3.org/2000/svg">
<path d="M33.3804 37.452C33.0036 37.8167 32.4989 38.0185 31.975 38.0139C31.4512 38.0094 30.9501 37.7988 30.5796 37.4276C30.2092 37.0564 29.999 36.5543 29.9945 36.0294C29.9899 35.5044 30.1913 34.9987 30.5553 34.6211L39.1326 26.0264H3.99626C3.46637 26.0264 2.95817 25.8155 2.58348 25.44C2.20879 25.0646 1.99829 24.5554 1.99829 24.0244C1.99829 23.4934 2.20879 22.9842 2.58348 22.6087C2.95817 22.2333 3.46637 22.0224 3.99626 22.0224H39.1326L30.5553 13.4276C30.1913 13.05 29.9899 12.5443 29.9945 12.0194C29.999 11.4945 30.2092 10.9923 30.5796 10.6211C30.9501 10.2499 31.4512 10.0394 31.975 10.0348C32.4989 10.0303 33.0036 10.2321 33.3804 10.5968L45.3682 22.6089C45.7428 22.9844 45.9532 23.4935 45.9532 24.0244C45.9532 24.5553 45.7428 25.0644 45.3682 25.4398L33.3804 37.452Z" fill="#F1F1F1"/>
</svg>
